Coordinates
version=1
nRows=10
nColumns=40
inDegrees=yes

Units are S.I. units (second, meters, Newtons, ...)
Angles are in degrees.

endheader
time	pelvis_tilt	pelvis_list	pelvis_rotation	pelvis_tx	pelvis_ty	pelvis_tz	hip_flexion_r	hip_adduction_r	hip_rotation_r	knee_angle_r	knee_angle_r_beta	ankle_angle_r	subtalar_angle_r	mtp_angle_r	hip_flexion_l	hip_adduction_l	hip_rotation_l	knee_angle_l	knee_angle_l_beta	ankle_angle_l	subtalar_angle_l	mtp_angle_l	lumbar_extension	lumbar_bending	lumbar_rotation	arm_flex_r	arm_add_r	arm_rot_r	elbow_flex_r	pro_sup_r	wrist_flex_r	wrist_dev_r	arm_flex_l	arm_add_l	arm_rot_l	elbow_flex_l	pro_sup_l	wrist_flex_l	wrist_dev_l
     33.28500000	     -8.04613830	     -6.06059131	      4.12582060	      1.06428256	      0.91760116	      0.44411149	      4.59779927	      5.72628107	    -18.23817203	     10.60553950	     10.60553950	     16.35729330	      3.05856162	     -1.83880265	     35.73359233	     -6.67445582	     -1.40067225	     21.07869143	     21.07869143	      6.04575852	    -10.71211671	      9.44095279	    -11.10131062	      5.54854035	      4.15052825	     44.08023059	    -15.78719287	      3.17864784	     99.81212938	     44.22309948	      0.00000000	      0.00000000	     -8.61220957	     -5.33643704	     -8.00597027	     34.28509373	     46.46323210	      0.00000000	      0.00000000
     33.29707143	     -7.98898221	     -6.11590772	      3.88598872	      1.06592679	      0.91642810	      0.44308128	      3.92760965	      5.74641908	    -17.96158006	     10.67418502	     10.67418502	     16.82738189	      3.16927145	     -1.90377372	     35.31097430	     -6.79948509	     -1.85632638	     21.70916843	     21.70916843	      5.51560685	    -11.22768354	      9.39441908	    -10.87986468	      5.52932748	      4.23964499	     43.25849865	    -15.51246035	      3.46371809	     99.62741734	     44.22023574	      0.00000000	      0.00000000	     -8.50834917	     -5.50461238	     -8.03782429	     34.37225686	     46.46700598	      0.00000000	      0.00000000
     33.30914286	     -7.90445093	     -6.21316408	      3.67372968	      1.06770439	      0.91532276	      0.44189220	      3.27374389	      5.77809103	    -17.72332709	     10.89104198	     10.89104198	     17.75313802	      3.40233545	     -0.56062560	     34.72389831	     -6.89166236	     -1.96172118	     22.05048331	     22.05048331	      3.74733947	    -12.40646226	      6.30082569	    -10.67938688	      5.55650119	      4.16599215	     42.47117851	    -15.42591396	      4.22323421	     99.11213822	     44.27576485	      0.00000000	      0.00000000	     -8.66399175	     -5.68323992	     -8.15756264	     35.11850332	     46.44203656	      0.00000000	      0.00000000
     33.32121429	     -7.81699244	     -6.18440854	      3.46565988	      1.06939400	      0.91445314	      0.44058682	      2.64014636	      5.65056664	    -17.46234164	     11.10112136	     11.10112136	     18.12003809	      3.45753088	     -0.65647979	     34.29218499	     -6.90347947	     -2.13435873	     22.80300916	     22.80300916	      3.54258735	    -12.81057167	      6.22953564	    -10.51085551	      5.43440479	      4.16989319	     41.36151500	    -15.16323815	      4.52200201	     98.82525342	     44.27408915	      0.00000000	      0.00000000	     -8.47477886	     -5.92080307	     -8.20682129	     35.19305947	     46.44951240	      0.00000000	      0.00000000
     33.33328571	     -7.84256168	     -6.18199208	      3.29582619	      1.07091505	      0.91354464	      0.43907175	      2.26671852	      5.48838720	    -17.24123222	     11.56050334	     11.56050334	     18.59505596	      3.38809594	     -0.60313627	     34.06507334	     -6.87747132	     -2.07543225	     23.62801623	     23.62801623	      3.36289658	    -13.37200596	      5.84334546	    -10.26037391	      5.36823948	      4.21803122	     40.17023750	    -15.26596875	      4.84499186	     98.24782451	     44.29008251	      0.00000000	      0.00000000	     -8.21184721	     -6.12094739	     -8.31783500	     35.39754432	     46.46050601	      0.00000000	      0.00000000
     33.34535714	     -7.73084002	     -6.09673593	      3.16908007	      1.07251564	      0.91322509	      0.43736762	      1.71908002	      5.23557080	    -17.04280172	     11.95966571	     11.95966571	     18.86193195	      3.32036828	     -0.64984581	     33.63555589	     -6.76504149	     -2.00935543	     24.36068448	     24.36068448	      3.49281050	    -13.74453021	      5.61283428	    -10.21086553	      5.22302497	      4.09386593	     38.84844209	    -15.11151129	      5.19150180	     97.84210669	     44.28978419	      0.00000000	      0.00000000	     -7.92795462	     -6.37884245	     -8.38723903	     35.52509535	     46.47198622	      0.00000000	      0.00000000
     33.35742857	     -7.77216591	     -6.01837752	      3.01385077	      1.07379758	      0.91287203	      0.43556523	      1.64391859	      4.87768313	    -16.81824234	     12.91601478	     12.91601478	     19.21634498	      3.04991289	     -0.69474133	     33.44277325	     -6.63409530	     -1.84974610	     25.15561136	     25.15561136	      3.74641587	    -14.24860850	      5.24619334	    -10.00175459	      5.06629060	      4.15165778	     37.40386790	    -15.38144156	      5.57480683	     97.03974008	     44.30558064	      0.00000000	      0.00000000	     -7.54760106	     -6.59811650	     -8.53920380	     35.78082518	     46.49247301	      0.00000000	      0.00000000
     33.36950000	     -7.77889696	     -5.90188808	      2.90185263	      1.07494309	      0.91294120	      0.43360298	      1.69000856	      4.42527817	    -16.62076562	     14.14254782	     14.14254782	     19.45237377	      2.65485357	     -0.76859216	     33.14507589	     -6.43968346	     -1.67294300	     25.78647029	     25.78647029	      4.15506710	    -14.64791540	      4.95675514	     -9.89867702	      4.87828582	      4.16048614	     35.88153790	    -15.61089360	      6.01944308	     96.15931210	     44.32403063	      0.00000000	      0.00000000	     -7.08446225	     -6.81776837	     -8.74435022	     36.05167600	     46.51922611	      0.00000000	      0.00000000
     33.38157143	     -7.77648203	     -5.79055559	      2.78579616	      1.07598327	      0.91333592	      0.43152269	      1.86459727	      3.92924039	    -16.41437476	     15.59814154	     15.59814154	     19.53424271	      2.18877711	     -0.99663470	     32.79870525	     -6.25431092	     -1.55462942	     26.32429494	     26.32429494	      4.73702557	    -14.95558392	      4.75833937	     -9.84030907	      4.72140833	      4.14092395	     34.27996803	    -15.83056349	      6.44444807	     95.18359188	     44.34567869	      0.00000000	      0.00000000	     -6.60917108	     -7.03357088	     -8.98032938	     36.31604175	     46.54978727	      0.00000000	      0.00000000
     33.39364286	     -7.61559551	     -5.78151959	      2.71857402	      1.07712358	      0.91430443	      0.42941246	      1.87565856	      3.54841990	    -16.30122763	     17.02790094	     17.02790094	     19.36824082	      1.76699299	     -1.26416843	     32.23037626	     -6.16928745	     -1.39431334	     26.75396195	     26.75396195	      5.44492429	    -15.17660546	      4.51595725	    -10.02333376	      4.63777954	      3.97994019	     32.45946399	    -15.84961565	      6.86646044	     94.30979962	     44.35717462	      0.00000000	      0.00000000	     -6.13465215	     -7.27845501	     -9.12813663	     36.54936015	     46.57285779	      0.00000000	      0.00000000
